<?xml version="1.0" standalone="no"?>
<!DOCTYPE svg PUBLIC "-//W3C//DTD SVG 20010904//EN"
 "http://www.w3.org/TR/2001/REC-SVG-20010904/DTD/svg10.dtd">
<svg version="1.0" xmlns="http://www.w3.org/2000/svg"
 width="60.000000pt" height="60.000000pt" viewBox="0 0 1024.000000 1024.000000"
 preserveAspectRatio="xMidYMid meet">

<g transform="translate(0.000000,1024.000000) scale(0.100000,-0.100000)"
fill="#000000" stroke="none">
<path d="M0 5120 l0 -5120 5120 0 5120 0 0 5120 0 5120 -5120 0 -5120 0 0
-5120z m5310 4431 c0 -14 156 -269 211 -344 27 -37 49 -70 49 -73 0 -3 -15 -2
-33 1 -25 5 -37 2 -48 -11 -11 -14 -11 -16 0 -10 8 6 7 0 -4 -18 -9 -14 -21
-23 -26 -20 -5 3 -9 1 -9 -3 0 -5 -10 -14 -22 -22 l-23 -14 19 24 c11 13 3 7
-17 -13 -33 -35 -56 -50 -43 -29 3 5 -1 11 -9 15 -11 4 -15 -1 -15 -17 0 -18
-2 -19 -10 -7 -9 13 -10 13 -11 0 -1 -8 -1 -17 -1 -20 2 -17 -50 0 -103 31
-33 20 -89 51 -125 69 -36 18 -66 34 -68 35 -2 2 24 40 56 86 74 105 212 324
212 338 0 6 5 11 10 11 6 0 10 -4 10 -9z m126 -831 c71 -80 147 -164 169 -188
22 -24 42 -48 43 -53 2 -5 -25 -9 -60 -9 l-63 0 -108 121 c-60 66 -112 119
-116 117 -12 -5 -185 -191 -201 -216 -14 -21 -21 -23 -81 -20 l-66 3 176 197
c96 108 176 196 177 195 0 -1 59 -67 130 -147z m-580 -158 c-24 -46 -47 -58
-164 -86 -334 -80 -709 -264 -978 -480 -224 -180 -474 -489 -617 -763 -32 -62
-61 -113 -64 -113 -3 0 -18 8 -34 17 l-28 17 61 115 c188 356 470 683 758 883
88 61 250 158 335 200 211 106 551 216 738 237 4 1 1 -11 -7 -27z m985 2 c207
-39 576 -191 798 -328 130 -81 253 -175 245 -188 -5 -7 -2 -8 5 -3 14 8 61
-31 61 -51 0 -8 6 -11 17 -7 11 4 14 3 9 -5 -4 -7 -19 -9 -36 -6 -22 5 -28 3
-26 -10 3 -19 16 -34 16 -18 0 7 7 12 15 12 8 0 15 -5 15 -12 0 -6 -3 -8 -7
-5 -3 4 -12 2 -19 -4 -9 -8 -17 -4 -29 15 -10 14 -23 26 -31 26 -7 0 -17 6
-21 13 -4 6 -24 23 -43 37 -289 206 -624 370 -910 445 -79 20 -100 30 -122 57
-25 29 -35 48 -24 48 2 0 41 -7 87 -16z m-1031 -170 c0 -11 -97 -137 -122
-160 -12 -11 -70 -35 -128 -53 -58 -18 -159 -59 -225 -91 -635 -309 -1062
-881 -1170 -1566 -9 -54 -18 -171 -21 -259 -5 -132 -2 -185 15 -300 70 -473
291 -889 666 -1253 316 -309 642 -481 1070 -566 372 -75 704 -53 1072 70 118
39 365 162 483 241 374 248 680 637 821 1045 19 54 39 99 44 101 6 1 39 1 73
-1 l64 -4 -7 -36 c-14 -74 -78 -250 -130 -357 -106 -217 -243 -411 -409 -578
-104 -105 -185 -174 -198 -170 -5 2 -7 -1 -5 -6 3 -13 -114 -101 -126 -94 -6
3 -8 2 -4 -3 8 -13 -120 -97 -136 -88 -6 4 -9 4 -5 -1 11 -11 -29 -38 -44 -29
-6 4 -8 3 -5 -3 9 -14 -179 -107 -199 -99 -7 3 -16 0 -20 -6 -5 -7 -2 -8 6 -3
9 6 11 4 5 -4 -4 -7 -16 -11 -26 -8 -11 3 -17 1 -14 -3 8 -13 -28 -17 -54 -6
-19 8 -26 7 -37 -9 -10 -13 -25 -18 -55 -17 -36 2 -40 0 -29 -13 10 -12 8 -16
-15 -25 -14 -5 -27 -10 -28 -10 -1 0 -1 20 1 45 3 36 8 45 23 45 14 0 19 7 19
30 0 17 -5 30 -11 30 -5 0 -8 -3 -6 -7 3 -5 -11 -9 -30 -10 -44 -2 -52 -9 -27
-28 10 -8 14 -15 7 -15 -6 0 -19 8 -28 17 -16 16 -18 16 -27 0 -5 -9 -16 -17
-23 -17 -8 0 -15 -4 -15 -10 0 -5 9 -10 20 -10 16 0 20 -7 20 -33 0 -18 5 -38
11 -44 9 -9 6 -13 -12 -17 -13 -3 -36 -7 -51 -11 -25 -5 -28 -2 -28 19 0 21
-6 25 -40 31 -25 4 -40 12 -40 21 0 10 12 14 40 14 33 0 40 4 40 19 0 14 10
21 36 26 20 3 34 9 31 12 -3 2 -30 -1 -60 -8 -44 -9 -54 -15 -49 -28 5 -14 3
-14 -11 -3 -9 8 -21 10 -29 5 -16 -10 -30 -11 -325 -19 -220 -6 -233 -7 -233
-25 0 -10 7 -19 15 -19 8 0 15 -9 15 -20 0 -18 -7 -20 -55 -20 -30 0 -55 5
-55 10 0 6 -9 10 -20 10 -11 0 -20 5 -20 10 0 6 -9 10 -20 10 -13 0 -20 -7
-20 -20 0 -17 -7 -20 -50 -20 -27 0 -50 4 -50 9 0 17 -33 22 -49 7 -17 -15
-67 -11 -78 7 -4 6 0 8 8 5 49 -18 59 -19 59 -4 0 12 -10 16 -40 16 l-40 0 0
46 c0 39 3 47 22 52 18 4 15 7 -20 17 -22 7 -53 11 -69 9 -22 -4 -24 -3 -8 4
18 8 17 9 -8 14 -27 5 -27 5 -12 -18 8 -13 15 -37 15 -54 0 -28 -3 -30 -34
-30 -19 0 -40 -2 -48 -3 -7 -2 -10 -2 -5 0 4 3 7 13 7 24 0 17 -6 19 -44 17
-24 -2 -42 -7 -39 -11 3 -5 17 -6 32 -3 14 3 20 3 13 0 -6 -3 -10 -10 -6 -15
3 -5 -18 0 -48 11 -29 12 -65 26 -80 32 -16 5 -25 15 -21 21 3 6 1 7 -6 3 -14
-9 -183 79 -306 158 -342 222 -675 607 -862 996 -93 195 -148 361 -186 564
-19 104 -22 155 -22 356 1 134 6 274 13 325 60 426 287 883 602 1209 298 309
663 519 1060 610 108 25 150 31 150 20z m1159 -40 c121 -35 246 -86 394 -161
369 -187 652 -439 880 -783 171 -258 310 -644 334 -925 l6 -76 -69 3 -69 3
-27 133 c-125 609 -438 1072 -951 1407 -120 78 -344 189 -448 222 -92 29 -93
30 -192 187 l-18 28 37 -6 c20 -4 75 -19 123 -32z m-511 -9 c99 -31 181 -84
255 -164 88 -95 120 -169 137 -310 21 -171 -36 -336 -159 -461 -121 -123 -283
-176 -458 -150 -316 48 -515 297 -483 601 16 155 72 265 194 380 127 119 333
161 514 104z m1551 -389 c9 -11 9 -16 -1 -22 -7 -4 -10 -4 -6 1 4 4 3 14 -3
22 -6 7 -9 13 -6 13 2 0 10 -6 16 -14z m-2429 -81 l-5 -46 -95 -43 c-199 -90
-347 -193 -523 -365 -109 -106 -168 -176 -256 -306 l-60 -87 -15 31 c-33 63
-19 97 111 258 155 193 409 405 606 505 70 35 216 97 232 98 7 0 9 -17 5 -45z
m1522 -1 c283 -121 562 -332 753 -569 263 -328 395 -700 395 -1117 0 -212 -37
-403 -119 -610 -9 -25 -13 -27 -35 -17 -37 17 -39 34 -10 123 53 166 75 285
81 437 16 399 -105 772 -354 1094 -80 103 -243 263 -354 348 -100 75 -273 178
-371 219 l-78 33 0 48 c0 26 2 47 4 47 2 0 42 -16 88 -36z m2067 -449 c22 -30
41 -56 41 -59 0 -2 -16 -10 -36 -16 -36 -12 -119 -6 -129 9 -3 6 72 119 81
121 1 0 20 -25 43 -55z m-3549 -231 c74 -72 163 -158 198 -191 64 -61 66 -73
13 -73 -9 0 -97 -80 -194 -178 l-176 -178 -3 60 c-2 34 -6 -427 -10 -1022 -3
-596 -9 -1086 -12 -1089 -4 -5 -112 57 -223 128 l-23 14 0 976 0 977 -45 54
-45 55 0 197 0 198 103 97 c56 54 124 117 151 140 l49 42 40 -38 c23 -21 102
-97 177 -169z m-2840 141 c0 -7 -9 -20 -20 -30 -19 -17 -21 -17 -40 0 -26 23
-25 40 2 59 20 14 24 14 40 -1 10 -9 18 -21 18 -28z m4567 -107 l143 -143 0
-169 0 -168 -40 -60 -39 -59 -1 -975 c0 -537 -2 -979 -5 -984 -8 -13 -122 -91
-187 -129 l-58 -32 0 1104 0 1104 125 108 c69 60 125 111 125 114 0 3 -50 58
-110 121 l-109 115 -120 -120 c-67 -66 -121 -124 -121 -130 0 -6 45 -55 100
-110 l100 -100 0 -68 0 -69 -32 28 c-18 15 -102 93 -185 173 -94 89 -163 148
-180 152 -27 6 -27 7 -3 8 19 0 77 54 235 216 115 118 211 215 214 215 3 0 70
-64 148 -142z m-1118 -1430 c-1 -722 -4 -1324 -8 -1338 -4 -14 -12 -24 -17
-23 -53 9 -58 7 -65 -17 -4 -14 -7 380 -8 875 l-1 901 -29 17 c-16 9 -31 17
-33 17 -2 0 -4 -400 -4 -888 1 -819 0 -890 -16 -905 -20 -20 -44 -22 -51 -4
-3 6 -7 -4 -8 -23 -1 -19 -6 17 -9 80 -9 143 -10 2165 -1 2314 l6 109 115 98
c63 54 118 98 123 98 4 1 7 -590 6 -1311z m-1616 1188 c85 -35 116 -140 61
-206 -52 -61 -122 -77 -181 -40 -42 25 -62 57 -69 111 -5 36 -1 50 18 79 25
38 79 70 116 70 12 0 37 -6 55 -14z m2615 -31 c14 -30 -2 -51 -43 -58 -57 -10
-77 27 -39 72 22 26 28 29 48 19 13 -5 28 -21 34 -33z m-655 -285 c59 -57 86
-98 57 -88 -5 2 -63 53 -129 113 -88 81 -120 116 -120 135 -1 26 -11 34 192
-160z m-2076 35 c1 0 -5 -30 -13 -65 -56 -234 -75 -444 -55 -606 16 -127 45
-264 76 -355 31 -90 31 -103 1 -117 -30 -13 -35 -8 -69 73 -55 131 -86 297
-94 495 -8 223 20 425 79 562 l20 47 27 -16 c14 -10 27 -17 28 -18z m3143 -70
c25 -21 111 -99 193 -173 158 -145 157 -144 138 -224 -6 -27 -8 -26 -126 84
-66 61 -157 146 -202 190 l-83 78 0 57 c0 63 -8 64 80 -12z m-2610 7 l0 -49
-112 -109 c-62 -61 -155 -150 -205 -199 l-93 -89 0 70 1 69 102 92 c56 51 144
131 195 178 51 47 97 85 102 85 6 0 10 -22 10 -48z m1507 -121 l93 -86 0 -978
c0 -776 -3 -978 -12 -976 -41 5 -68 -2 -70 -18 -8 -78 -16 428 -17 1093 l-1
801 -23 21 -24 22 -6 -442 c-4 -244 -7 -686 -8 -983 -1 -297 -4 -529 -8 -515
l-7 25 -6 -23 c-5 -19 -11 -22 -30 -17 -13 4 -27 11 -33 17 -7 6 -11 392 -13
1110 l-3 1101 38 -34 c21 -18 80 -71 130 -118z m-3010 24 c82 -34 143 -111
143 -178 0 -76 -52 -154 -121 -181 l-41 -17 7 -217 c8 -267 17 -350 56 -544
120 -592 409 -1120 840 -1533 119 -114 304 -257 427 -329 79 -47 100 -74 72
-91 -6 -4 -61 25 -123 63 -327 205 -585 458 -816 802 -255 379 -399 745 -480
1215 -17 94 -41 408 -41 525 l0 105 -47 25 c-117 62 -148 213 -61 297 32 31
110 72 136 73 7 0 29 -7 49 -15z m5612 -9 c66 -34 108 -84 116 -140 15 -95
-21 -166 -102 -203 l-53 -24 0 -97 c0 -249 -38 -588 -91 -812 -103 -440 -316
-857 -620 -1215 -89 -105 -264 -276 -362 -353 -111 -88 -333 -232 -357 -232
-27 0 -26 36 2 52 203 119 430 298 581 459 140 151 201 227 308 389 317 476
478 1033 479 1645 l0 160 -41 19 c-103 50 -142 143 -105 249 19 51 39 72 99
102 63 31 85 31 146 1z m-2139 -291 c16 -19 8 -511 -10 -605 -7 -35 -28 -94
-46 -130 -19 -36 -34 -71 -34 -77 0 -7 -7 -13 -15 -13 -8 0 -15 -4 -15 -10 0
-5 -7 -10 -15 -10 -8 0 -15 -9 -15 -20 0 -11 -3 -19 -7 -19 -22 4 -33 -3 -34
-18 0 -15 -2 -15 -9 2 -6 14 -9 3 -10 -40 -1 -33 -6 -71 -10 -85 -4 -14 -8
260 -9 609 l-1 633 109 -101 c59 -55 114 -108 121 -116z m-1175 183 c-3 -13
-8 -185 -11 -383 -8 -444 -8 -444 -15 -439 -10 6 -19 -23 -19 -58 0 -16 -6
-36 -14 -43 -7 -8 -17 -34 -20 -60 -5 -29 -12 -45 -22 -45 -8 0 -14 -9 -14
-20 0 -11 -4 -20 -10 -20 -5 0 -10 -9 -10 -20 0 -11 -7 -20 -15 -20 -8 0 -15
-9 -15 -20 0 -13 -7 -20 -20 -20 -12 0 -22 -9 -25 -22 -3 -13 -9 -131 -14
-263 -6 -194 -8 -100 -9 497 l-2 736 117 111 c65 61 119 111 120 111 2 0 1
-10 -2 -22z m-794 -1042 c-5 -6 -12 -35 -16 -63 -6 -47 -9 -53 -31 -53 -14 0
-24 -6 -24 -14 0 -7 -9 -16 -20 -19 -11 -3 -20 -13 -20 -23 0 -24 -29 -54 -52
-54 -10 0 -18 -6 -19 -12 0 -10 -2 -10 -6 0 -12 31 -23 6 -25 -60 -1 -40 -5
37 -8 172 -3 135 -3 404 0 597 l5 353 110 110 110 110 3 -516 c1 -294 -2 -522
-7 -528z m2749 342 c0 -271 -4 -488 -9 -488 -5 0 -11 -18 -15 -40 -6 -40 -7
-40 -50 -40 -41 0 -45 -2 -48 -27 -3 -23 -9 -29 -45 -36 l-42 -8 -4 -152 c-1
-84 -4 219 -5 673 l-2 825 110 -110 110 -110 0 -487z m765 462 c3 -6 0 -10 -7
-10 -15 0 -38 19 -38 32 0 10 36 -8 45 -22z m155 -137 c38 -32 69 -61 69 -65
1 -5 -21 -8 -49 -8 l-50 0 -1 -122 c-2 -131 -2 -138 -19 -210 -10 -40 -14 -46
-35 -43 -13 1 -36 10 -50 19 -25 16 -25 18 -25 151 l0 135 -40 0 c-32 0 -39 3
-33 14 9 15 156 184 161 185 2 1 35 -25 72 -56z m-2057 -1975 c-2 -5 -3 -15
-3 -23 0 -10 -10 -15 -30 -15 -20 0 -30 5 -30 15 0 9 -10 16 -22 16 -18 1 -16
3 7 8 40 9 81 8 78 -1z m249 -50 c-7 -7 -16 -7 -28 0 -14 8 -13 10 10 10 18 0
24 -4 18 -10z m-197 -46 c-3 -3 -16 -6 -30 -8 -19 -2 -22 0 -13 10 7 7 21 11
31 8 10 -2 15 -7 12 -10z m-745 -2 c12 -8 11 -10 -5 -9 -11 1 -33 5 -50 9
l-30 8 35 1 c19 0 42 -4 50 -9z m47 4 c-3 -3 -12 -4 -19 -1 -8 3 -5 6 6 6 11
1 17 -2 13 -5z m-1777 -964 c56 -63 112 -125 124 -138 l22 -23 120 135 119
136 53 0 c47 0 52 -2 53 -22 5 -70 6 -617 2 -640 -4 -27 -7 -28 -69 -28 l-64
0 -2 221 -3 221 -90 -112 c-49 -62 -97 -121 -106 -133 -16 -19 -19 -16 -120
112 l-104 131 -3 -220 -2 -220 -70 0 -70 0 0 344 c0 223 4 346 10 348 6 2 30
3 54 3 44 0 46 -1 146 -115z m2070 110 c75 -14 134 -47 186 -102 70 -75 89
-125 89 -238 0 -83 -4 -103 -29 -156 -33 -73 -81 -123 -156 -161 -49 -24 -66
-28 -150 -28 -84 0 -102 3 -152 28 -65 32 -121 89 -152 156 -30 67 -31 245 0
312 42 90 125 159 223 185 58 16 76 16 141 4z m-2536 -322 c3 -178 5 -332 3
-343 -3 -17 -13 -20 -75 -23 l-72 -3 0 346 0 345 69 0 68 0 7 -322z m1432 200
c60 -67 114 -128 120 -137 10 -12 17 -9 45 24 19 22 74 84 122 137 l88 98 55
0 54 0 -2 -342 -3 -343 -67 -3 -68 -3 -2 220 -3 221 -99 -125 c-54 -69 -104
-124 -110 -122 -10 3 -149 172 -188 227 -16 24 -17 15 -17 -197 l-1 -223 -70
0 -70 0 0 133 c0 74 3 229 7 345 l6 212 47 0 47 0 109 -122z m1724 -223 l0
-345 -75 0 -75 0 0 345 0 345 75 0 75 0 0 -345z m380 70 l0 -275 150 0 150 0
0 -70 0 -70 -220 0 -220 0 0 345 0 345 70 0 70 0 0 -275z m640 0 l0 -275 155
0 155 0 0 -70 0 -70 -230 0 -230 0 0 345 0 345 75 0 75 0 0 -275z m1108 208
l-3 -68 -217 -3 -218 -2 0 -65 0 -65 210 0 210 0 0 -70 0 -70 -210 0 -210 0 0
-70 0 -70 220 0 220 0 0 -70 0 -70 -295 0 -295 0 0 345 0 345 295 0 296 0 -3
-67z m-4738 -1008 c24 -12 30 -22 30 -47 0 -17 9 -46 21 -64 l21 -34 -41 0
c-40 0 -42 1 -66 56 -28 64 -30 75 -13 92 15 15 13 15 48 -3z m806 1 c27 -20
6 -43 -25 -27 -31 17 -61 -2 -61 -39 0 -37 31 -57 66 -41 30 13 45 -6 19 -26
-48 -34 -125 6 -125 64 1 63 77 105 126 69z m409 -11 c51 -50 15 -135 -58
-135 -59 0 -102 63 -76 112 29 54 93 65 134 23z m1170 -38 c13 -31 27 -66 30
-77 9 -30 -19 -25 -33 5 -8 17 -20 25 -36 25 -24 0 -56 -23 -56 -41 0 -5 -7
-9 -15 -9 -20 0 -20 0 16 86 39 95 60 97 94 11z m752 33 c21 -36 26 -37 43 -6
7 14 19 27 27 31 31 11 31 -7 3 -54 -17 -27 -30 -60 -30 -75 0 -19 -5 -26 -20
-26 -15 0 -20 7 -20 25 0 14 -14 50 -31 80 -29 52 -30 55 -11 55 13 0 28 -12
39 -30z m871 1 c2 -13 -8 -48 -23 -77 -26 -52 -29 -54 -67 -54 l-39 0 19 28
c11 15 23 43 27 62 4 19 14 43 23 53 22 25 56 18 60 -12z m-2474 -8 c-4 -124
-3 -123 -24 -123 -18 0 -20 7 -20 76 0 72 1 75 23 72 15 -2 22 -10 21 -25z
m116 -48 c0 -60 -3 -75 -15 -75 -11 0 -15 12 -15 51 0 31 -4 48 -10 44 -5 -3
-10 -14 -10 -24 0 -9 -6 -26 -14 -37 -18 -24 -31 -12 -41 36 -4 26 -3 31 4 20
6 -8 11 -10 11 -5 0 6 8 1 16 -10 16 -20 16 -20 9 3 -9 29 18 72 45 72 18 0
20 -7 20 -75z m364 53 c9 -12 16 -28 16 -35 0 -23 -39 -53 -70 -53 -23 0 -30
-4 -30 -20 0 -11 -7 -20 -15 -20 -12 0 -15 15 -15 75 l0 75 49 0 c40 0 53 -4
65 -22z m710 -20 l36 -43 0 43 c0 35 3 42 20 42 18 0 20 -7 20 -75 0 -65 -2
-75 -17 -74 -10 0 -34 20 -53 44 -19 24 -37 44 -40 44 -3 1 -6 -18 -5 -41 0
-33 -4 -43 -17 -46 -16 -3 -18 5 -18 72 0 68 2 76 19 76 11 0 35 -19 55 -42z"/>
<path d="M6320 4340 c-12 -7 -10 -9 7 -7 12 0 19 5 17 9 -6 10 -6 10 -24 -2z"/>
<path d="M4405 4260 c-3 -5 -1 -10 4 -10 6 0 11 5 11 10 0 6 -2 10 -4 10 -3 0
-8 -4 -11 -10z"/>
<path d="M6140 4250 c-9 -6 -10 -10 -3 -10 6 0 15 5 18 10 8 12 4 12 -15 0z"/>
<path d="M4464 4235 c22 -17 40 -20 32 -6 -3 5 -16 11 -28 14 -22 6 -22 5 -4
-8z"/>
<path d="M6064 4214 c-18 -14 -18 -14 6 -3 31 14 36 19 24 19 -6 0 -19 -7 -30
-16z"/>
<path d="M5986 4175 c4 -8 8 -15 10 -15 2 0 4 7 4 15 0 8 -4 15 -10 15 -5 0
-7 -7 -4 -15z"/>
<path d="M4783 4134 c5 -5 12 -9 15 -10 10 0 74 -15 96 -21 15 -4 16 -7 5 -14
-10 -7 -8 -8 8 -6 12 2 26 6 29 10 10 10 26 9 20 -1 -2 -4 -1 -14 4 -22 7 -12
15 -12 49 0 22 7 53 10 70 7 20 -4 31 -2 31 4 0 8 -19 10 -55 7 -30 -3 -55 -1
-55 2 0 4 -39 15 -87 24 -49 9 -99 19 -113 22 -15 4 -22 3 -17 -2z"/>
<path d="M5185 8206 c-72 -23 -119 -53 -173 -110 -211 -223 -126 -569 166
-672 203 -72 432 38 503 243 27 76 27 201 0 278 -44 125 -146 223 -270 259
-65 19 -170 20 -226 2z m230 -153 c22 -12 48 -30 58 -40 18 -21 17 -27 -17
-173 -2 -8 -9 -14 -15 -12 -6 1 -11 -9 -11 -23 0 -15 -7 -28 -17 -32 -10 -4
-28 -18 -40 -31 -13 -14 -27 -21 -34 -16 -8 4 -9 3 -5 -4 4 -7 -3 -11 -21 -11
-15 0 -80 0 -143 -2 l-115 -2 -13 39 c-15 44 -10 126 12 178 21 51 76 107 131
133 42 20 62 23 120 20 44 -2 85 -11 110 -24z"/>
<path d="M5259 7891 c-58 -58 -24 -151 55 -151 26 0 40 7 60 31 14 17 26 39
26 50 0 48 -49 99 -96 99 -9 0 -29 -13 -45 -29z"/>
<path d="M4354 7118 c-28 -29 -76 -82 -107 -117 l-57 -64 87 -82 c49 -45 107
-98 130 -119 l43 -38 107 112 108 112 -125 124 c-69 68 -128 124 -131 124 -2
0 -27 -24 -55 -52z m120 -159 c18 -26 12 -43 -20 -64 -23 -15 -27 -15 -54 5
-37 26 -38 52 -4 79 29 23 52 17 78 -20z"/>
<path d="M5150 2971 c-112 -59 -135 -248 -41 -342 89 -90 239 -62 292 55 34
75 20 195 -29 249 -50 55 -156 74 -222 38z"/>
<path d="M3279 2046 c7 -8 9 -21 5 -27 -4 -8 -3 -9 4 -5 17 10 15 33 -4 40
-14 5 -15 4 -5 -8z"/>
<path d="M4428 2029 c-21 -12 -24 -59 -6 -77 7 -7 21 -12 33 -12 12 0 26 5 33
12 19 19 15 66 -7 78 -24 12 -31 12 -53 -1z"/>
<path d="M5626 2005 c-4 -10 1 -15 14 -15 13 0 18 5 14 15 -4 8 -10 15 -14 15
-4 0 -10 -7 -14 -15z"/>
<path d="M7267 2030 c3 -11 9 -17 14 -15 10 7 1 35 -11 35 -5 0 -6 -9 -3 -20z"/>
<path d="M4860 1971 c0 -11 4 -22 9 -25 4 -3 6 6 3 19 -5 30 -12 33 -12 6z"/>
<path d="M5230 2010 c0 -25 4 -30 25 -30 47 0 43 50 -5 57 -16 2 -20 -3 -20
-27z"/>
</g>
</svg>
